# xmcd
#
# Track frame offsets: 
#        150
#        16232
#        33955
#        63128
#
# Disc length: 1569 seconds
#
# Revision: 4
# Processed by: cddbd v1.5.2PL0 Copyright (c) Steve Scherf et al.
# Submitted via: ExactAudioCopy v0.90b4
#
DISCID=23061f04
DTITLE=Timbaland - Give It To Me
DYEAR=2007
DGENRE=R&B
TTITLE0=Give It To Me (Featuring Nelly Furtado and Justin Timberlake)
TTITLE1=Give It To Me (Instrumental)
TTITLE2=Come Around (Featuring M.I.A.)
TTITLE3=Movie
EXTD=
EXTT0=
EXTT1=
EXTT2=
EXTT3=
PLAYORDER=
